{"glyphs":{":":{"x_min":0,"x_max":250,"ha":250,"o":"m 163 354 q 144 354 131 367 q 118 381 118 403 q 118 434 135 453 q 153 473 177 473 q 197 473 209 460 q 221 447 221 424 q 221 394 204 374 q 188 354 163 354 z m 103 -13 q 83 -13 71 0 q 58 14 58 36 q 58 66 75 86 q 93 106 117 106 q 137 106 149 93 q 161 80 161 58 q 161 27 144 7 q 127 -13 103 -13 z"},"$":{"x_min":0,"x_max":500,"ha":500,"o":"m 50 180 l 79 180 l 78 139 l 79 91 q 104 66 127 55 q 151 44 192 38 l 235 311 q 158 327 126 354 q 86 389 86 453 q 86 504 110 550 q 134 596 179 628 q 224 660 293 675 l 301 740 l 320 739 l 339 740 q 333 710 327 675 q 377 674 405 667 q 432 661 465 642 l 465 633 q 453 589 441 517 l 416 517 l 417 570 l 416 591 q 398 609 378 619 q 358 628 320 633 l 280 377 q 353 364 384 348 q 415 331 432 301 q 449 271 449 235 q 449 181 421 129 q 394 77 347 45 q 301 13 220 -3 l 207 -107 l 165 -107 q 177 -57 185 -7 q 136 -5 100 5 q 64 15 29 38 l 29 43 q 46 98 50 180 z m 285 633 q 239 628 213 611 q 187 593 170 559 q 153 525 153 485 q 153 439 180 414 q 200 395 248 383 z m 227 38 q 277 41 306 59 q 335 78 355 117 q 375 156 375 201 q 375 248 344 275 q 321 294 270 305 z"},"?":{"x_min":0,"x_max":500,"ha":500,"o":"m 161 561 l 138 567 q 167 627 180 666 q 210 686 235 694 q 259 701 291 701 q 368 701 410 664 q 452 626 452 567 q 452 520 420 472 q 399 439 314 362 q 250 305 237 284 q 223 263 223 244 q 223 230 230 220 q 237 209 252 201 l 252 195 l 229 188 q 206 202 197 218 q 188 233 188 253 q 188 277 201 305 q 215 332 268 391 q 337 470 353 499 q 368 528 368 557 q 368 596 344 619 q 319 643 276 643 q 252 643 229 635 q 212 629 204 620 q 195 612 161 561 z m 187 -13 q 167 -13 155 0 q 142 14 142 37 q 142 66 160 86 q 177 106 202 106 q 221 106 233 93 q 245 80 245 58 q 245 27 228 7 q 211 -13 187 -13 z"},"<":{"x_min":0,"x_max":606,"ha":606,"o":"m 549 164 l 549 90 l 57 313 l 57 375 l 549 598 l 549 524 l 156 344 z"},"'":{"x_min":0,"x_max":333,"ha":333,"o":"m 150 401 l 135 625 l 134 654 q 134 679 144 690 q 153 701 168 701 q 183 701 191 691 q 200 682 200 666 q 200 656 198 635 l 180 407 q 179 386 166 386 q 151 386 150 401 z"},"=":{"x_min":0,"x_max":606,"ha":606,"o":"m 57 394 l 57 461 l 549 461 l 549 394 z m 57 227 l 57 294 l 549 294 l 549 227 z"},"a":{"x_min":0,"x_max":444,"ha":444,"o":"m 403 473 l 415 465 q 367 299 340 171 q 325 97 325 74 q 325 64 329 60 q 333 55 340 55 q 356 55 413 102 l 418 80 q 366 33 317 5 q 293 -8 275 -8 q 262 -8 256 0 q 250 7 250 24 q 250 64 283 191 l 279 191 q 209 91 131 29 q 79 -13 54 -13 q 40 -13 31 1 q 19 24 19 66 q 19 139 48 239 q 77 339 107 381 q 130 414 197 450 q 238 473 283 473 q 303 473 325 469 q 347 464 372 456 z m 329 409 q 307 417 288 421 q 269 425 252 425 q 214 425 183 412 q 174 407 161 379 q 134 324 112 238 q 90 152 90 86 q 90 69 95 62 q 101 54 108 54 q 128 54 181 105 q 235 157 266 211 q 307 285 329 409 z"},"L":{"x_min":0,"x_max":556,"ha":556,"o":"m 30 -3 l 33 23 l 61 33 q 78 39 84 46 q 89 54 102 115 l 136 311 q 182 594 182 636 q 182 653 168 658 q 162 660 96 664 l 96 691 q 178 688 235 688 q 294 688 361 691 l 357 664 l 320 662 q 288 660 278 652 q 267 641 258 597 l 216 342 q 182 140 174 43 q 242 39 303 39 q 433 39 450 51 q 468 63 491 165 l 521 165 l 512 110 q 504 57 499 -3 l 406 -4 q 362 -4 279 -2 q 216 0 164 0 q 96 0 30 -3 z"},"3":{"x_min":0,"x_max":500,"ha":500,"o":"m 44 175 l 68 171 q 64 140 64 124 q 64 80 97 52 q 130 24 186 24 q 256 24 305 80 q 354 136 354 223 q 354 289 319 323 q 283 358 217 358 q 184 358 140 346 l 135 349 l 153 399 q 190 394 201 394 q 240 394 277 415 q 314 435 335 468 q 355 501 355 537 q 355 581 329 607 q 302 633 254 633 q 217 633 189 616 q 161 600 124 549 l 104 562 q 137 614 162 661 q 193 676 223 683 q 252 691 280 691 q 353 691 392 655 q 432 618 432 560 q 432 530 419 500 q 406 471 385 451 q 364 432 291 388 q 358 371 384 353 q 410 335 426 302 q 441 270 441 229 q 441 168 406 112 q 370 55 305 21 q 241 -13 166 -13 q 124 -13 90 -3 q 55 7 16 33 q 33 105 44 175 z"},";":{"x_min":0,"x_max":250,"ha":250,"o":"m 147 354 q 127 354 115 367 q 102 381 102 403 q 102 434 120 453 q 137 473 161 473 q 181 473 193 460 q 205 447 205 424 q 205 394 188 374 q 171 354 147 354 z m 159 114 l 170 101 q 99 -47 17 -137 q 0 -145 -18 -151 l -25 -141 q 14 -87 34 -40 q 55 8 70 87 q 105 96 159 114 z"},"J":{"x_min":0,"x_max":333,"ha":333,"o":"m 111 664 l 111 691 q 186 688 246 688 q 311 688 372 691 l 372 664 q 316 659 308 655 q 299 650 293 639 q 287 628 276 560 l 241 321 l 205 83 q 187 -31 171 -78 q 155 -125 127 -158 q 103 -187 71 -203 q 49 -214 27 -214 q 14 -214 -9 -205 l -12 -177 q 7 -183 19 -183 q 35 -183 48 -175 q 61 -167 70 -150 q 86 -123 104 -27 q 114 29 142 205 q 160 325 175 438 q 199 611 199 626 q 199 647 189 653 q 179 659 111 664 z"},"V":{"x_min":0,"x_max":722,"ha":722,"o":"m 105 665 l 105 691 q 180 688 238 688 q 298 688 356 691 l 356 665 q 296 661 284 654 q 272 647 272 630 q 272 623 280 558 q 300 388 342 98 q 557 450 627 586 q 645 621 645 636 q 645 648 632 655 q 618 662 565 665 l 565 691 q 646 688 672 688 q 705 688 759 691 l 759 665 q 741 662 731 656 q 722 650 712 636 l 637 507 l 521 315 q 458 212 329 -10 l 280 -10 q 262 141 190 614 q 185 646 177 652 q 168 658 105 665 z"},"\"":{"x_min":0,"x_max":500,"ha":500,"o":"m 154 401 l 139 625 l 138 654 q 138 679 147 690 q 156 701 171 701 q 186 701 195 692 q 204 682 204 666 q 204 657 202 635 l 184 407 q 182 386 170 386 q 155 386 154 401 z m 313 401 l 299 625 q 298 643 298 655 q 298 679 307 690 q 316 701 332 701 q 346 701 355 691 q 363 682 363 665 q 363 656 362 635 l 344 407 q 342 386 330 386 q 314 386 313 401 z"},"7":{"x_min":0,"x_max":500,"ha":500,"o":"m 89 -3 l 82 6 q 144 97 292 327 q 402 500 460 599 l 319 599 q 204 599 116 594 l 111 599 q 120 634 125 674 l 128 678 q 239 672 413 672 q 478 672 530 674 l 530 638 q 434 498 305 268 q 222 121 171 -3 q 145 0 125 0 q 109 0 89 -3 z"},"S":{"x_min":0,"x_max":556,"ha":556,"o":"m 77 178 l 106 178 q 105 145 105 112 l 106 81 q 140 57 173 46 q 206 35 243 35 q 320 35 368 81 q 417 127 417 196 q 417 247 390 271 q 362 294 294 309 q 215 325 184 344 q 152 363 135 395 q 118 427 118 472 q 118 569 196 635 q 273 701 389 701 q 428 701 457 694 q 487 687 518 669 q 499 606 493 537 l 463 537 l 464 574 l 463 611 q 438 639 413 649 q 388 659 351 659 q 278 659 235 617 q 192 575 192 507 q 192 471 205 449 q 217 428 243 413 q 269 398 338 383 q 411 367 438 351 q 465 334 481 305 q 496 275 496 235 q 496 140 411 63 q 325 -13 211 -13 q 168 -13 128 -3 q 88 8 51 28 q 67 95 77 178 z"},"}":{"x_min":0,"x_max":333,"ha":333,"o":"m 254 277 q 212 290 197 310 q 181 330 181 362 q 181 375 185 402 l 217 595 q 220 611 220 623 q 220 649 211 668 q 202 687 187 697 q 173 708 137 716 q 215 712 231 708 q 261 702 279 680 q 297 659 297 620 q 297 601 293 575 l 262 387 q 258 361 258 351 q 258 326 274 307 q 291 288 329 277 q 290 266 275 255 q 252 238 242 220 q 231 201 225 167 l 191 -33 q 183 -83 159 -113 q 135 -143 93 -155 q 76 -161 -10 -165 l 5 -161 q 40 -152 59 -138 q 78 -124 91 -100 q 104 -76 110 -43 l 144 157 q 150 196 162 216 q 174 237 196 253 q 212 265 254 277 z"},"Z":{"x_min":0,"x_max":667,"ha":667,"o":"m 29 -3 l 29 22 q 62 62 188 218 l 373 451 l 527 649 q 417 651 381 651 q 239 651 169 638 q 154 598 141 533 l 115 533 l 120 576 q 125 632 127 691 q 408 688 467 688 q 561 688 643 691 l 643 669 q 611 632 502 496 l 193 106 q 177 86 144 41 q 280 37 367 37 q 480 37 551 52 q 573 108 584 164 l 616 164 q 602 82 591 -3 q 544 -6 521 -6 q 500 -6 377 -2 l 256 1 q 114 1 29 -3 z"},"x":{"x_min":0,"x_max":500,"ha":500,"o":"m 23 87 l 42 90 l 53 60 q 64 50 77 50 q 101 50 128 74 q 155 99 224 210 q 210 316 192 363 q 173 410 146 410 q 130 410 112 398 q 94 386 74 361 l 54 371 q 85 413 115 458 q 131 465 145 469 q 159 473 172 473 q 216 473 238 442 q 260 411 274 292 q 333 385 360 417 q 387 449 413 463 q 432 473 452 473 q 466 473 480 464 l 467 379 l 452 375 q 445 399 421 399 q 395 399 368 376 q 341 353 282 262 q 306 119 321 84 q 336 50 361 50 q 372 50 385 57 q 397 63 438 96 l 450 79 q 387 20 354 0 q 333 -13 312 -13 q 294 -13 278 4 q 262 21 249 73 q 247 81 230 177 q 171 82 143 45 q 115 9 91 -4 q 76 -13 53 -13 q 32 -13 9 1 q 20 41 23 87 z"},")":{"x_min":0,"x_max":333,"ha":333,"o":"m 138 726 q 198 636 229 555 q 271 444 271 335 q 271 179 190 43 q 126 -63 -10 -183 l -33 -158 q 27 -101 63 -47 q 125 44 158 149 q 191 254 191 377 q 191 473 173 551 q 154 628 111 708 z"},"&":{"x_min":0,"x_max":778,"ha":778,"o":"m 406 211 l 383 214 l 390 316 q 415 339 440 349 q 466 358 543 369 q 646 384 677 394 q 709 404 724 422 q 738 440 738 461 q 738 478 730 490 q 723 501 702 514 l 723 532 q 753 514 763 496 q 774 479 774 451 q 774 417 755 388 q 736 359 701 343 q 677 332 571 315 q 610 302 627 282 q 644 261 644 232 q 644 147 548 72 q 439 -13 295 -13 q 184 -13 119 43 q 54 100 54 183 q 54 231 75 271 q 96 312 133 338 q 170 365 265 396 q 222 414 204 440 q 186 465 186 501 q 186 567 257 629 q 341 701 425 701 q 453 701 473 695 q 494 689 521 672 q 506 612 496 555 l 472 556 q 472 593 471 615 q 450 633 430 641 q 410 648 384 648 q 329 648 294 615 q 258 581 258 531 q 258 482 293 454 q 329 424 397 425 q 386 400 378 375 q 350 379 334 379 q 282 379 235 355 q 188 331 164 291 q 140 251 140 203 q 140 131 195 83 q 250 35 342 35 q 444 35 508 88 q 571 140 571 208 q 571 249 548 271 q 525 294 484 294 q 461 294 446 286 q 430 278 421 264 q 416 254 406 211 z"},"_":{"x_min":0,"x_max":500,"ha":500,"o":"m -6 -75 l 506 -75 l 506 -125 l -6 -125 z"},"v":{"x_min":0,"x_max":500,"ha":500,"o":"m 34 347 l 12 347 l 42 430 l 54 465 q 68 469 82 471 q 95 473 106 473 q 125 473 159 467 q 200 460 218 460 q 239 460 272 470 l 280 458 q 204 361 174 289 q 145 216 145 146 q 145 94 167 67 q 188 40 221 40 q 297 40 353 139 q 409 239 409 344 q 409 376 398 391 q 387 405 367 405 q 355 405 338 397 l 328 415 q 360 443 383 470 q 398 473 408 473 q 437 473 455 449 q 474 425 474 379 q 474 296 421 195 q 369 94 291 33 q 233 -13 183 -13 q 133 -13 103 21 q 72 56 72 123 q 72 192 109 266 q 132 310 222 417 q 191 412 171 412 q 159 412 142 414 q 121 415 111 415 q 103 415 93 413 q 82 412 69 408 q 54 386 34 347 z"},"O":{"x_min":0,"x_max":778,"ha":778,"o":"m 345 -13 q 241 -13 184 17 q 128 46 96 104 q 63 163 63 254 q 63 433 167 567 q 271 701 469 701 q 603 701 673 632 q 743 562 743 434 q 743 310 687 204 q 631 98 542 42 q 452 -13 345 -13 z m 151 265 q 151 181 175 133 q 199 84 249 57 q 298 29 366 29 q 514 29 586 155 q 653 271 653 433 q 653 515 629 563 q 604 612 557 638 q 510 664 440 664 q 354 664 293 623 q 232 582 191 485 q 151 388 151 265 z"},"(":{"x_min":0,"x_max":333,"ha":333,"o":"m 213 -183 q 153 -93 123 -14 q 81 98 81 208 q 81 364 162 500 q 226 607 361 726 l 384 701 q 324 644 288 589 q 226 498 193 393 q 160 289 160 166 q 160 70 179 -7 q 197 -83 241 -166 z"},"C":{"x_min":0,"x_max":667,"ha":667,"o":"m 635 109 q 628 92 623 74 q 564 28 503 8 q 441 -13 366 -13 q 223 -13 144 65 q 65 144 65 287 q 65 467 179 580 q 301 701 474 701 q 527 701 577 691 q 628 681 675 661 q 656 591 649 518 l 621 518 q 619 543 619 556 l 621 599 q 572 630 532 641 q 493 653 438 653 q 347 653 289 617 q 230 581 191 497 q 152 414 152 308 q 152 179 218 110 q 284 40 398 40 q 453 40 502 56 q 552 71 623 115 z"},"W":{"x_min":0,"x_max":944,"ha":944,"o":"m 22 664 l 22 691 q 117 688 148 688 q 189 688 264 691 l 264 664 l 236 663 q 204 662 193 651 q 182 641 182 608 q 182 324 188 128 q 292 278 405 460 q 489 594 545 700 l 564 700 q 601 533 724 121 q 854 416 905 558 q 926 616 926 633 q 926 648 913 655 q 900 662 851 664 l 851 691 q 918 688 955 688 q 996 688 1060 691 l 1052 664 q 1014 663 1004 652 q 986 633 883 384 l 725 -8 l 677 -8 q 606 266 518 555 q 291 213 160 -8 l 109 -8 q 110 36 110 70 q 110 220 107 332 l 99 597 q 97 634 92 642 q 86 651 76 657 q 65 663 22 664 z"},"A":{"x_min":0,"x_max":722,"ha":722,"o":"m 475 699 l 582 124 q 594 58 599 46 q 602 39 611 35 q 620 31 673 26 l 673 -3 q 619 0 549 0 q 481 0 427 -3 l 427 26 l 460 27 q 494 28 503 34 q 513 41 513 56 q 513 71 506 112 l 477 277 l 228 277 l 188 207 q 128 102 118 77 q 109 59 109 50 q 109 41 120 36 q 131 31 197 26 l 197 -3 q 120 0 77 0 q 30 0 -24 -3 l -24 26 q 16 28 24 34 q 33 39 71 101 l 427 699 z m 419 602 l 251 315 q 330 314 372 314 q 411 314 470 315 z"},"f":{"x_min":0,"x_max":278,"ha":278,"o":"m 48 377 l 53 400 q 108 420 141 438 l 147 472 q 166 563 170 576 q 178 598 203 622 q 264 680 313 708 q 345 725 372 725 q 398 725 438 710 q 422 674 408 629 l 397 625 q 382 646 366 654 q 350 662 327 662 q 284 662 265 634 q 247 605 212 430 l 238 430 q 278 430 320 438 l 326 433 q 313 400 308 381 q 268 384 236 384 l 203 383 l 179 270 q 119 -17 86 -102 q 53 -187 -16 -241 q -64 -280 -106 -280 q -122 -280 -144 -272 q -131 -239 -119 -190 l -108 -188 q -84 -217 -54 -217 q -27 -217 -7 -197 q 22 -168 48 -51 q 80 96 130 381 q 94 381 48 377 z"},"Q":{"x_min":0,"x_max":778,"ha":778,"o":"m 680 -56 l 704 -56 q 700 -124 669 -160 q 638 -196 594 -196 q 564 -196 533 -184 q 484 -166 375 -105 q 311 -69 288 -61 q 265 -53 244 -53 q 207 -53 186 -79 q 166 -104 165 -165 l 140 -153 l 140 -128 q 140 -90 154 -65 q 169 -41 198 -26 q 227 -11 269 -11 q 206 1 168 26 q 116 60 90 115 q 63 171 63 253 q 63 384 118 490 q 173 596 261 649 q 349 701 469 701 q 603 701 673 632 q 743 562 743 434 q 743 310 687 204 q 631 98 541 42 q 451 -13 340 -13 q 321 -13 283 -11 q 333 -21 395 -49 q 521 -108 545 -117 q 587 -133 616 -133 q 643 -133 657 -117 q 672 -102 680 -56 z m 151 265 q 151 141 210 85 q 269 29 366 29 q 514 29 587 156 q 653 271 653 432 q 653 515 629 563 q 604 612 557 638 q 510 664 440 664 q 354 664 293 623 q 232 582 191 485 q 151 388 151 265 z"},"w":{"x_min":0,"x_max":722,"ha":722,"o":"m 35 342 l 13 342 l 26 387 l 48 462 q 79 468 96 468 q 109 468 139 463 q 176 458 203 458 q 226 458 236 460 q 247 462 266 470 l 276 456 q 142 302 142 141 q 142 86 157 63 q 173 40 195 40 q 210 40 228 51 q 256 68 289 117 q 321 167 345 244 q 358 286 392 452 q 421 459 464 473 l 472 467 q 440 375 416 259 q 400 179 400 131 q 400 85 418 63 q 437 40 465 40 q 499 40 527 65 q 571 104 602 183 q 632 261 632 338 q 632 373 619 390 q 605 407 582 407 q 569 407 553 399 l 541 412 q 572 438 595 470 q 614 473 626 473 q 657 473 676 449 q 694 425 694 379 q 694 292 645 192 q 596 91 530 39 q 465 -13 419 -13 q 383 -13 359 15 q 334 43 334 93 q 334 122 344 175 q 296 75 238 22 q 199 -13 159 -13 q 121 -13 94 22 q 68 57 68 124 q 68 162 82 207 q 96 252 120 292 q 138 320 218 416 q 174 409 139 409 l 112 411 l 86 412 q 69 412 62 404 q 55 396 35 342 z"},"-":{"x_min":0,"x_max":333,"ha":333,"o":"m 21 208 l 20 216 q 31 244 41 273 q 144 270 197 270 q 249 270 310 273 l 311 268 q 297 235 289 208 q 198 212 133 212 q 81 212 21 208 z"},"E":{"x_min":0,"x_max":611,"ha":611,"o":"m 38 -4 l 42 20 l 59 25 q 77 32 93 39 q 123 165 170 454 q 194 603 194 627 q 194 646 183 652 q 171 658 104 663 l 109 691 q 195 688 259 688 l 478 691 q 531 691 572 687 q 560 625 555 540 l 527 540 q 524 628 516 638 q 503 650 373 650 q 332 650 284 648 q 258 518 236 378 q 300 376 352 376 q 411 376 487 384 l 492 378 q 482 356 473 330 q 404 335 298 335 l 229 334 q 195 143 183 48 q 264 40 352 40 q 410 40 457 45 q 472 47 479 52 q 485 57 490 69 q 494 78 516 161 l 545 161 l 536 106 q 527 58 522 0 q 484 -5 444 -5 q 418 -5 368 -3 q 258 0 198 0 q 122 0 38 -4 z"},"s":{"x_min":0,"x_max":389,"ha":389,"o":"m 43 144 l 69 144 l 68 98 l 69 62 q 93 43 119 33 q 146 24 175 24 q 222 24 252 54 q 283 84 283 130 q 283 163 268 178 q 252 193 204 201 q 117 214 91 233 q 58 259 58 310 q 58 349 81 382 q 104 414 165 449 q 208 473 254 473 q 278 473 302 467 q 327 461 352 448 q 341 404 334 336 l 312 336 q 312 358 312 372 q 312 396 302 405 q 270 431 221 431 q 171 431 144 406 q 117 381 117 341 q 117 307 139 292 q 155 281 219 269 q 292 255 313 240 q 343 217 343 170 q 343 106 276 46 q 209 -13 127 -13 q 100 -13 74 -6 q 48 0 22 14 q 36 70 43 144 z"},">":{"x_min":0,"x_max":606,"ha":606,"o":"m 57 164 l 450 344 l 57 524 l 57 598 l 549 375 l 549 313 l 57 90 z"},"l":{"x_min":0,"x_max":278,"ha":278,"o":"m 73 664 l 76 684 q 177 699 235 726 l 249 718 l 190 435 l 181 388 l 129 137 q 120 87 120 69 q 120 60 124 55 q 128 50 135 50 q 156 50 225 106 l 235 86 q 174 35 117 3 q 88 -13 71 -13 q 57 -13 48 -3 q 40 7 40 25 q 40 31 42 47 l 60 133 q 86 262 107 355 l 117 402 q 134 481 147 575 q 154 621 154 640 q 154 657 146 660 q 137 664 73 664 z"},"8":{"x_min":0,"x_max":500,"ha":500,"o":"m 320 375 q 383 342 404 315 q 433 278 433 222 q 433 163 400 109 q 367 55 307 21 q 248 -13 187 -13 q 129 -13 84 24 q 39 62 39 131 q 39 193 78 246 q 117 298 218 349 q 164 376 140 409 q 117 442 117 485 q 117 563 185 627 q 252 691 337 691 q 399 691 434 657 q 469 624 469 567 q 469 518 439 476 q 410 433 320 375 z m 292 390 q 351 431 374 470 q 398 510 398 553 q 398 596 372 622 q 345 649 303 649 q 254 649 219 612 q 185 576 185 521 q 185 482 206 453 q 228 424 292 390 z m 246 333 q 194 308 167 281 q 140 254 125 218 q 110 183 110 146 q 110 94 141 62 q 172 29 220 29 q 279 29 316 71 q 358 119 358 190 q 358 241 331 274 q 312 297 246 333 z"},"\\":{"x_min":0,"x_max":606,"ha":606,"o":"m 428 -165 l 395 -163 q 380 -163 354 -165 q 352 -147 340 -83 l 198 619 q 186 678 175 713 l 201 713 q 212 712 250 715 q 255 674 263 634 l 407 -80 q 421 -142 428 -165 z"},"e":{"x_min":0,"x_max":389,"ha":389,"o":"m 333 109 l 340 88 q 271 29 225 8 q 179 -13 139 -13 q 82 -13 51 20 q 20 54 20 117 q 20 183 46 264 q 72 345 106 381 q 141 417 215 453 q 256 473 290 473 q 330 473 353 451 q 376 430 376 396 q 376 264 103 209 q 93 151 93 123 q 93 83 116 59 q 138 35 172 35 q 198 35 234 50 q 269 64 333 109 z m 107 233 q 208 251 254 291 q 300 331 300 379 q 300 405 288 418 q 276 431 254 431 q 223 431 194 413 q 166 395 147 359 q 124 312 107 233 z"},"b":{"x_min":0,"x_max":463,"ha":463,"o":"m 57 665 l 58 685 q 155 693 222 726 l 234 715 q 228 687 175 439 l 150 321 q 193 392 258 432 q 324 473 378 473 q 407 473 417 456 q 435 429 435 373 q 435 270 392 179 q 348 89 276 38 q 205 -13 145 -13 q 100 -13 71 12 q 42 37 42 72 q 42 100 67 225 q 99 380 131 577 q 139 626 139 638 q 139 655 125 660 q 119 662 57 665 z m 114 104 q 114 69 134 49 q 154 29 188 29 q 230 29 260 55 q 301 90 333 175 q 364 259 364 347 q 364 391 355 405 q 348 415 323 415 q 272 415 220 366 q 167 317 141 231 q 114 145 114 104 z"},"%":{"x_min":0,"x_max":889,"ha":889,"o":"m 290 680 q 340 680 376 644 q 412 607 412 555 q 412 507 388 463 q 365 418 326 395 q 287 371 243 371 q 192 371 158 407 q 125 443 125 501 q 125 549 147 591 q 169 633 209 656 q 248 680 290 680 z m 190 468 q 190 431 205 412 q 220 393 244 393 q 289 393 317 456 q 346 520 346 590 q 346 623 331 641 q 315 658 291 658 q 244 658 217 597 q 190 537 190 468 z m 174 -43 q 210 9 224 30 l 607 643 q 628 676 646 712 q 668 710 682 710 l 700 711 q 680 684 646 629 l 269 28 q 240 -17 227 -43 l 200 -42 q 191 -42 174 -43 z m 629 301 q 679 301 715 264 q 750 228 750 176 q 750 127 727 83 q 704 39 665 15 q 626 -8 582 -8 q 531 -8 497 28 q 463 63 463 122 q 463 169 486 211 q 508 253 548 277 q 587 301 629 301 z m 529 88 q 529 51 544 32 q 559 14 583 14 q 628 14 656 77 q 685 140 685 211 q 685 244 669 261 q 654 279 630 279 q 583 279 556 218 q 529 157 529 88 z"},"m":{"x_min":0,"x_max":778,"ha":778,"o":"m 34 365 l 25 385 q 105 442 142 461 q 167 473 183 473 q 195 473 201 467 q 207 461 207 447 q 207 438 198 393 q 189 349 172 271 q 238 369 313 421 q 388 473 428 473 q 440 473 448 466 q 455 458 455 446 q 455 424 421 267 q 472 340 521 383 q 570 426 628 453 q 671 473 696 473 q 708 473 714 466 q 721 459 721 447 q 721 418 664 201 q 634 88 634 69 q 634 60 638 55 q 642 50 649 50 q 658 50 667 55 q 686 64 730 94 l 740 75 q 652 13 621 -2 q 600 -13 584 -13 q 571 -13 562 -3 q 553 7 553 24 q 553 48 586 161 q 637 333 637 391 q 637 401 633 406 q 629 410 622 410 q 593 410 540 369 q 469 314 430 235 q 396 167 370 3 q 339 -2 301 -12 l 293 -5 q 345 187 360 268 q 374 349 374 388 q 374 400 370 405 q 366 410 357 410 q 333 410 291 375 q 219 316 183 241 q 148 167 119 3 q 87 -1 52 -11 l 45 -3 q 87 141 109 257 q 126 348 126 380 q 126 394 122 400 q 117 406 110 406 q 93 406 34 365 z"},"#":{"x_min":0,"x_max":606,"ha":606,"o":"m 529 285 l 529 217 l 423 217 l 392 0 l 323 0 l 355 217 l 220 217 l 188 0 l 120 0 l 153 217 l 51 217 l 51 285 l 163 285 l 184 418 l 79 418 l 79 486 l 193 486 l 224 688 l 291 688 l 261 486 l 395 486 l 424 688 l 493 688 l 463 486 l 556 486 l 556 418 l 453 418 l 434 285 z m 385 418 l 250 418 l 231 285 l 365 285 z"},",":{"x_min":0,"x_max":250,"ha":250,"o":"m 159 114 l 170 101 q 98 -47 17 -137 q 0 -145 -18 -151 l -25 -141 q 14 -88 34 -40 q 55 8 70 87 q 106 96 159 114 z"},"n":{"x_min":0,"x_max":556,"ha":556,"o":"m 33 361 l 25 382 q 104 439 149 462 q 169 473 186 473 q 197 473 203 466 q 209 459 209 446 q 209 436 206 417 l 167 248 q 209 316 266 370 q 323 424 375 448 q 427 473 456 473 q 469 473 477 465 q 485 457 485 441 q 485 428 481 412 q 477 386 436 213 q 405 86 405 64 q 405 50 420 50 q 435 50 476 79 l 507 99 l 516 80 q 395 -13 355 -13 q 342 -13 333 -4 q 325 6 325 23 q 325 52 357 175 q 403 348 403 389 q 403 399 398 405 q 393 410 384 410 q 355 410 304 370 q 230 312 189 231 q 148 150 125 1 q 98 -2 55 -13 l 47 -5 q 83 114 109 251 q 129 357 129 386 q 129 396 125 401 q 121 406 114 406 q 95 406 33 361 z"},"h":{"x_min":0,"x_max":500,"ha":500,"o":"m 12 -13 l 4 -4 q 42 128 104 450 q 137 620 137 639 q 137 659 123 663 q 116 666 54 666 l 56 687 q 139 697 220 726 l 230 715 q 150 355 135 263 q 230 381 302 427 q 375 473 419 473 q 433 473 441 464 q 450 456 450 439 q 450 421 446 401 q 437 353 401 212 q 371 91 371 67 q 371 50 386 50 q 394 50 403 54 q 412 58 442 79 l 472 98 l 481 80 q 389 13 360 -2 q 339 -13 323 -13 q 309 -13 300 -3 q 292 8 292 26 q 292 46 314 135 q 368 349 368 383 q 368 397 362 404 q 356 411 346 411 q 317 411 258 366 q 181 307 142 230 q 103 153 81 3 q 42 -1 12 -13 z"},"z":{"x_min":0,"x_max":444,"ha":444,"o":"m 89 340 l 65 340 q 95 426 104 464 q 121 469 135 471 q 150 473 162 473 q 188 473 235 460 q 308 441 344 441 q 364 441 379 448 q 394 455 410 473 l 420 466 q 417 451 414 437 l 87 55 q 152 74 185 74 q 209 74 247 63 q 280 54 297 54 q 309 54 320 58 q 331 61 342 68 q 352 88 373 139 l 397 137 q 379 86 361 -2 q 345 -7 330 -10 q 314 -13 300 -13 q 263 -13 213 1 q 151 19 116 19 q 90 19 69 13 q 49 6 24 -11 l 10 12 l 355 415 q 310 400 293 397 q 276 394 254 394 q 231 394 207 399 q 171 406 152 406 q 145 406 138 405 q 131 404 124 401 q 108 379 89 340 z"},"B":{"x_min":0,"x_max":611,"ha":611,"o":"m 31 -2 l 34 24 q 73 36 80 43 q 87 50 91 69 q 109 155 145 380 q 181 605 181 630 q 181 651 166 657 q 157 661 94 665 l 98 692 q 167 688 197 688 q 219 688 299 691 l 359 692 q 460 692 503 658 q 546 623 546 560 q 546 500 503 449 q 460 397 367 364 q 456 352 489 327 q 533 295 533 224 q 533 139 458 73 q 371 -4 268 -4 q 251 -4 203 -2 q 157 0 128 0 q 94 0 31 -2 z m 221 377 q 253 375 269 375 q 359 375 410 424 q 462 472 462 550 q 462 600 430 627 q 398 655 332 655 q 308 655 270 651 q 247 564 221 377 z m 169 45 q 230 33 268 33 q 363 33 405 84 q 447 134 447 213 q 447 275 409 308 q 372 340 287 340 q 257 340 214 336 q 193 211 169 45 z"},"K":{"x_min":0,"x_max":667,"ha":667,"o":"m 25 -3 l 25 26 l 57 28 q 81 29 88 34 q 96 39 102 49 q 107 60 126 171 l 170 433 q 199 614 199 626 q 199 647 189 653 q 179 659 110 664 l 113 691 q 189 688 252 688 q 314 688 375 691 l 375 664 q 309 659 301 655 q 292 650 286 640 q 280 629 268 551 l 234 351 q 305 403 419 518 q 533 633 546 656 q 551 665 551 691 q 603 688 623 688 q 647 688 681 691 l 681 664 q 646 662 636 658 q 626 655 606 638 l 510 548 l 316 366 l 568 62 q 588 38 598 33 q 608 28 647 26 l 647 -3 q 625 0 602 0 q 558 0 512 -3 q 395 161 234 338 l 192 76 q 190 64 190 58 q 190 42 200 36 q 208 32 276 26 l 276 -3 q 225 0 185 0 q 110 0 25 -3 z"},"R":{"x_min":0,"x_max":667,"ha":667,"o":"m 13 -3 l 13 25 l 44 27 q 79 28 87 35 q 95 41 101 65 q 112 111 157 367 q 194 583 194 625 q 194 645 181 652 q 168 660 102 664 l 102 692 q 206 688 251 688 q 288 688 344 691 q 382 693 407 693 q 497 693 539 656 q 582 619 582 556 q 582 515 557 471 q 533 428 491 399 q 449 370 375 353 q 457 223 530 117 q 581 45 595 36 q 606 28 639 25 l 639 -3 q 595 0 565 0 q 538 0 506 -3 q 462 78 392 186 q 322 295 268 366 l 268 377 q 299 373 313 373 q 359 373 404 397 q 450 420 473 459 q 497 498 497 542 q 497 596 465 626 q 432 656 366 656 q 330 656 284 646 q 252 484 207 210 q 186 83 186 57 q 186 39 200 33 q 208 30 274 25 l 270 -3 q 203 0 156 0 q 107 0 13 -3 z"},"T":{"x_min":0,"x_max":611,"ha":611,"o":"m 133 -3 l 133 25 l 170 28 q 207 30 215 36 q 224 42 228 56 q 239 86 275 310 q 303 486 325 649 q 181 648 161 646 q 142 643 133 634 q 120 621 108 571 l 99 531 l 72 531 l 84 640 q 86 660 86 691 q 246 688 356 688 q 461 688 654 691 q 639 628 627 531 l 600 531 l 604 609 q 604 633 585 640 q 566 647 410 649 q 315 105 315 59 q 315 40 328 34 q 340 28 413 25 l 409 -3 q 340 0 269 0 q 195 0 133 -3 z"},"P":{"x_min":0,"x_max":611,"ha":611,"o":"m 22 -3 l 22 26 l 54 28 q 84 29 93 36 q 101 42 107 67 q 122 125 162 365 q 202 606 202 629 q 202 648 189 655 q 176 662 112 666 l 112 692 q 213 688 246 688 q 277 688 336 690 q 391 693 417 693 q 486 693 522 676 q 559 659 579 623 q 600 588 600 539 q 600 476 566 415 q 533 354 479 322 q 426 289 365 289 q 319 289 276 312 l 276 343 q 318 326 350 326 q 423 326 468 383 q 512 439 512 524 q 512 587 476 621 q 439 655 370 655 q 341 655 291 646 q 249 430 213 214 q 193 94 193 62 q 193 43 204 38 q 216 32 293 26 l 293 -3 q 186 0 135 0 q 82 0 22 -3 z"},"|":{"x_min":0,"x_max":606,"ha":606,"o":"m 278 -176 l 278 716 l 342 716 l 342 -176 z"},"t":{"x_min":0,"x_max":333,"ha":333,"o":"m 276 114 l 288 95 q 158 -13 113 -13 q 99 -13 89 -2 q 79 10 79 30 q 79 54 101 153 q 130 288 148 384 l 112 385 l 63 384 l 66 400 q 114 415 154 436 q 166 493 181 607 q 221 620 259 641 l 271 632 q 258 583 224 428 l 275 427 q 306 427 330 433 l 334 428 q 328 405 323 380 q 275 384 215 384 q 160 122 160 80 q 160 66 165 60 q 169 54 177 54 q 198 54 276 114 z"},"M":{"x_min":0,"x_max":944,"ha":944,"o":"m -12 -3 l -12 27 q 28 27 39 32 q 50 38 58 50 q 66 62 89 140 l 149 345 l 211 564 q 221 601 221 616 q 221 639 204 649 q 188 659 128 661 l 128 691 q 174 688 216 688 q 256 688 293 691 l 454 111 q 516 215 698 525 l 793 691 q 846 688 872 688 q 902 688 956 691 l 956 661 q 902 660 889 653 q 880 648 875 638 q 870 627 867 594 q 858 516 843 324 q 828 131 828 76 q 828 46 840 38 q 852 30 916 27 l 916 -3 q 835 0 779 0 q 723 0 653 -3 l 653 27 q 715 29 726 33 q 736 38 741 45 q 746 53 749 79 q 753 113 769 323 l 786 576 q 741 511 668 389 l 480 70 q 455 26 433 -21 l 411 -21 l 252 549 l 149 177 q 124 84 124 60 q 124 39 139 33 q 148 29 210 27 l 210 -3 q 134 0 96 0 q 54 0 -12 -3 z"},"g":{"x_min":0,"x_max":500,"ha":500,"o":"m 487 374 l 422 373 q 425 350 425 339 q 425 302 404 258 q 382 214 349 186 q 315 158 253 137 q 231 115 231 93 q 231 80 240 66 q 250 53 286 24 q 359 -34 375 -56 q 402 -89 402 -126 q 402 -186 345 -226 q 269 -280 159 -280 q 70 -280 26 -246 q -18 -212 -18 -162 q -18 -109 28 -59 q 74 -10 172 20 q 156 37 156 51 q 156 65 165 76 q 173 87 223 132 q 206 130 196 130 q 137 130 103 163 q 69 196 69 256 q 69 345 135 409 q 200 473 292 473 q 333 473 360 460 q 388 447 406 418 q 446 419 494 424 z m 351 333 q 351 375 341 396 q 330 417 310 430 q 290 442 261 442 q 208 442 177 403 q 141 356 141 274 q 141 219 166 191 q 191 163 234 163 q 267 163 290 180 q 314 197 333 241 q 351 286 351 333 z m 199 -4 q 120 -26 83 -65 q 46 -104 46 -149 q 46 -195 82 -224 q 118 -253 186 -253 q 254 -253 295 -223 q 335 -193 335 -154 q 335 -135 325 -118 q 309 -92 273 -62 z"},"j":{"x_min":0,"x_max":278,"ha":278,"o":"m 163 644 q 163 669 181 688 q 198 707 220 707 q 236 707 246 696 q 256 686 256 666 q 256 638 240 620 q 223 601 203 601 q 186 601 174 613 q 163 624 163 644 z m 43 364 l 34 382 q 132 448 158 461 q 184 473 198 473 q 209 473 217 467 q 224 460 224 449 q 224 421 159 139 q 116 -50 95 -116 q 65 -214 21 -255 q -7 -280 -40 -280 q -63 -280 -89 -266 q -80 -226 -77 -200 l -69 -199 q -54 -235 -20 -235 q -9 -235 -1 -231 q 8 -227 16 -216 q 24 -206 30 -185 l 72 23 l 116 245 q 141 379 141 391 q 141 406 127 406 q 108 406 43 364 z"},"i":{"x_min":0,"x_max":278,"ha":278,"o":"m 162 644 q 162 669 179 688 q 197 707 218 707 q 235 707 245 696 q 255 686 255 666 q 255 638 239 620 q 222 601 201 601 q 184 601 173 613 q 162 624 162 644 z m 39 363 l 29 383 q 150 473 188 473 q 200 473 206 467 q 212 460 212 447 q 212 417 190 332 q 132 117 132 71 q 132 54 147 54 q 165 54 226 98 l 236 79 q 166 23 121 -2 q 102 -13 86 -13 q 73 -13 63 -1 q 54 10 54 32 q 54 64 80 160 q 130 349 130 387 q 130 406 116 406 q 101 406 39 363 z"},"y":{"x_min":0,"x_max":500,"ha":500,"o":"m 23 359 l 10 376 q 85 439 122 460 q 143 472 160 472 q 174 472 183 460 q 192 449 192 422 q 192 391 183 277 q 173 149 173 105 q 173 80 178 71 q 184 62 195 62 q 239 62 316 185 q 378 282 413 456 q 457 464 487 473 l 498 464 q 474 408 434 279 l 368 57 q 343 -27 310 -94 q 276 -161 234 -204 q 191 -248 156 -264 q 120 -280 88 -280 q 48 -280 24 -258 q 0 -236 0 -200 l 0 -185 q 26 -173 52 -151 l 61 -156 l 60 -178 q 60 -207 79 -225 q 97 -243 124 -243 q 143 -243 159 -236 q 175 -229 195 -208 q 215 -188 238 -140 q 262 -92 286 -13 l 337 174 q 262 65 205 18 q 166 -15 146 -15 q 127 -15 114 3 q 101 21 101 62 q 101 87 108 164 q 117 268 117 333 q 117 380 112 393 q 106 405 97 405 q 82 405 23 359 z"},"@":{"x_min":0,"x_max":747,"ha":747,"o":"m 660 184 l 710 184 q 679 127 650 98 q 600 45 536 16 q 472 -13 398 -13 q 297 -13 212 34 q 127 81 80 162 q 34 242 34 339 q 34 438 81 522 q 129 606 210 654 q 292 701 388 701 q 510 701 611 624 q 712 546 712 415 q 712 339 681 278 q 649 217 591 178 q 533 139 488 139 q 459 139 438 159 q 416 179 411 219 q 380 177 354 161 q 327 146 296 146 q 242 146 203 187 q 164 228 164 290 q 164 348 193 401 q 223 453 274 485 q 326 517 376 517 q 410 517 432 499 q 454 482 464 447 l 480 508 l 549 508 l 477 237 q 471 215 471 201 q 471 188 479 179 q 486 171 499 171 q 532 171 573 202 q 614 233 642 292 q 669 352 669 414 q 669 513 589 586 q 508 660 391 660 q 303 660 231 619 q 160 578 118 504 q 77 430 77 341 q 77 253 118 182 q 159 111 235 70 q 311 28 402 28 q 455 28 500 45 q 545 62 586 95 q 626 129 660 184 z m 442 414 q 442 449 426 468 q 410 487 385 487 q 354 487 319 461 q 285 436 259 377 q 232 319 232 267 q 232 227 254 201 q 276 175 305 175 q 333 175 362 199 q 391 224 416 291 q 442 358 442 414 z"},".":{"x_min":0,"x_max":250,"ha":250,"o":"m 103 -13 q 83 -13 71 0 q 58 14 58 36 q 58 66 75 86 q 93 106 117 106 q 136 106 148 93 q 160 80 160 59 q 160 27 144 7 q 127 -13 103 -13 z"},"p":{"x_min":0,"x_max":500,"ha":500,"o":"m 11 363 l -1 383 q 91 444 126 461 q 152 473 167 473 q 178 473 184 466 q 191 458 191 445 q 191 427 162 290 q 202 355 242 392 q 283 430 332 451 q 381 473 410 473 q 433 473 445 453 q 466 419 466 369 q 466 289 432 205 q 399 122 362 87 q 325 52 270 20 q 215 -13 174 -13 q 149 -13 111 -1 q 78 -161 65 -266 q 22 -271 -7 -280 l -14 -274 q 35 -67 90 245 q 110 361 110 390 q 110 400 106 405 q 101 410 94 410 q 78 410 11 363 z m 120 56 q 164 29 209 29 q 252 29 286 59 q 320 89 355 184 q 391 279 391 361 q 391 391 382 403 q 373 415 354 415 q 311 415 256 370 q 202 324 167 244 q 147 200 126 91 z"},"X":{"x_min":0,"x_max":722,"ha":722,"o":"m 23 -3 l 23 24 q 75 28 86 35 q 98 42 178 136 l 352 343 q 262 513 212 599 q 185 645 175 651 q 164 658 97 663 l 97 691 q 177 688 237 688 q 297 688 363 691 l 363 663 q 299 660 291 656 q 282 653 282 643 q 282 636 290 621 q 309 577 402 404 q 556 590 574 617 q 585 634 585 643 q 585 658 560 659 l 534 661 l 506 663 l 506 691 q 571 688 620 688 q 686 688 736 691 l 736 663 l 710 661 q 686 659 675 651 q 658 640 567 535 l 422 367 l 574 93 q 604 41 616 34 q 627 27 686 24 l 686 -3 q 609 0 567 0 l 419 -3 l 419 24 q 484 26 495 30 q 505 35 505 46 q 505 53 495 74 q 476 115 373 305 q 233 137 194 80 q 179 56 179 48 q 179 39 189 34 q 200 30 268 24 l 268 -3 q 203 0 157 0 q 105 0 23 -3 z"},"*":{"x_min":0,"x_max":389,"ha":389,"o":"m 129 413 l 118 414 q 103 452 92 471 l 94 477 q 175 508 224 532 l 94 596 l 90 606 q 108 631 123 660 l 132 660 q 165 625 237 554 l 259 695 l 269 701 q 302 689 331 683 l 332 674 q 299 619 260 544 l 400 568 l 407 563 q 410 535 415 505 l 408 500 q 348 509 261 520 l 328 399 l 326 393 q 297 382 267 364 l 259 370 q 251 440 236 509 z"},"Y":{"x_min":0,"x_max":667,"ha":667,"o":"m 186 -3 l 186 25 q 255 25 266 32 q 276 40 285 80 q 312 206 312 246 q 312 305 263 438 q 214 572 180 606 q 156 631 125 631 q 108 631 79 622 l 79 646 q 128 679 155 701 q 196 700 218 684 q 257 656 294 568 q 332 480 373 312 q 416 406 462 479 q 508 551 554 600 q 600 649 633 669 q 658 685 701 694 l 695 622 q 639 611 598 574 q 521 506 460 399 q 399 293 384 206 q 361 72 361 54 q 361 36 370 32 q 382 26 452 25 l 447 -3 q 369 0 308 0 q 249 0 186 -3 z"},"c":{"x_min":0,"x_max":407,"ha":407,"o":"m 379 324 l 355 324 q 357 362 357 379 q 357 398 340 409 q 314 425 273 425 q 223 425 194 402 q 164 379 138 304 q 112 228 112 145 q 112 94 136 67 q 160 40 197 40 q 229 40 267 55 q 304 70 362 113 l 370 92 q 296 30 250 8 q 203 -13 162 -13 q 104 -13 72 25 q 41 62 41 132 q 41 203 64 276 q 88 349 128 386 q 167 424 245 458 q 281 473 318 473 q 342 473 359 468 q 376 463 401 447 q 385 390 379 324 z"},"!":{"x_min":0,"x_max":333,"ha":333,"o":"m 286 701 l 298 693 q 240 488 177 199 q 162 192 147 183 l 140 188 q 183 449 200 676 q 249 688 286 701 z m 131 -13 q 112 -13 99 0 q 86 14 86 37 q 86 66 104 86 q 121 106 146 106 q 165 106 177 93 q 189 80 189 59 q 189 27 173 7 q 156 -13 131 -13 z"},"/":{"x_min":0,"x_max":296,"ha":296,"o":"m -123 -160 l -75 -77 l 306 634 q 327 673 346 716 q 381 713 395 713 l 420 714 q 399 682 366 619 l -11 -80 q -37 -128 -51 -160 l -87 -158 q -100 -158 -123 -160 z"},"[":{"x_min":0,"x_max":333,"ha":333,"o":"m 263 -134 l 257 -165 l 228 -164 q 179 -161 134 -161 q 96 -161 60 -165 l 54 -159 q 69 -99 92 40 q 134 295 167 528 q 182 638 186 709 l 194 716 q 254 712 284 712 q 312 712 380 715 l 375 684 q 303 680 289 676 q 274 671 266 659 q 257 646 252 610 l 229 458 l 174 101 q 148 -60 148 -98 q 148 -118 161 -124 q 173 -129 263 -134 z"},"6":{"x_min":0,"x_max":500,"ha":500,"o":"m 456 625 l 447 625 q 430 636 417 639 q 405 643 385 643 q 296 643 234 560 q 172 477 138 310 q 177 362 208 382 q 256 413 311 413 q 376 413 414 373 q 452 333 452 258 q 452 187 420 128 q 389 70 323 28 q 258 -13 207 -13 q 140 -13 96 39 q 51 91 51 200 q 51 303 98 421 q 145 540 235 615 q 326 691 415 691 q 427 691 441 689 q 456 687 471 683 q 460 647 456 625 z m 129 173 q 129 104 160 70 q 190 35 238 35 q 274 35 304 57 q 335 79 355 127 q 375 176 375 235 q 375 296 347 328 q 319 360 272 360 q 213 360 171 310 q 129 259 129 173 z"},"r":{"x_min":0,"x_max":389,"ha":389,"o":"m 47 357 l 36 375 q 121 438 164 460 q 188 473 205 473 q 213 473 218 468 q 223 462 223 450 q 223 433 218 407 l 186 259 q 263 391 316 443 q 347 473 372 473 q 383 473 399 468 q 388 423 382 362 l 367 358 q 354 377 336 377 q 316 377 294 361 q 256 334 222 278 q 189 221 171 153 q 167 137 139 4 q 109 -1 71 -13 l 62 -6 q 99 118 121 238 q 144 358 144 387 q 144 406 131 406 q 116 406 47 357 z"},"2":{"x_min":0,"x_max":500,"ha":500,"o":"m 14 -3 l 14 17 q 230 237 300 352 q 352 437 352 509 q 352 566 322 597 q 292 628 241 628 q 198 628 164 604 q 130 580 96 516 l 73 527 l 134 645 q 166 668 200 679 q 233 691 269 691 q 345 691 390 646 q 436 602 436 527 q 436 493 426 461 q 417 429 392 388 q 368 348 300 274 l 109 71 l 109 65 l 259 65 q 350 65 427 71 l 433 65 q 428 50 417 -3 q 313 0 203 0 q 105 0 14 -3 z"},"{":{"x_min":0,"x_max":333,"ha":333,"o":"m 138 274 q 180 261 196 241 q 212 221 212 189 q 212 175 208 149 l 175 -44 q 172 -65 172 -76 q 172 -97 181 -117 q 191 -137 205 -146 q 219 -156 255 -165 q 177 -161 154 -156 q 131 -151 114 -130 q 96 -109 96 -64 q 96 -44 100 -23 l 131 164 q 135 189 135 199 q 135 225 118 244 q 102 263 63 274 q 103 286 117 296 q 140 313 151 331 q 162 350 167 383 l 201 584 q 210 634 234 664 q 257 694 299 707 q 316 711 403 716 l 387 712 q 353 704 334 689 q 314 675 301 651 q 288 627 282 595 l 249 394 q 242 355 230 335 q 218 314 199 300 q 180 286 138 274 z"},"9":{"x_min":0,"x_max":500,"ha":500,"o":"m 39 109 l 61 116 q 86 69 112 52 q 138 35 174 35 q 257 35 310 120 q 363 205 391 367 q 338 306 304 288 q 271 270 228 270 q 160 270 119 314 q 78 359 78 437 q 78 544 145 611 q 226 691 314 691 q 390 691 432 638 q 475 586 475 473 q 475 336 424 219 q 372 102 298 44 q 223 -13 149 -13 q 131 -13 112 -8 q 92 -3 71 6 q 61 45 39 109 z m 397 503 q 397 574 366 611 q 334 649 286 649 q 233 649 195 599 q 156 549 156 463 q 156 392 185 357 q 214 323 264 323 q 299 323 331 344 q 363 366 380 403 q 397 440 397 503 z"}," ":{"x_min":0,"x_max":250,"ha":250,"o":""},"I":{"x_min":0,"x_max":333,"ha":333,"o":"m 3 -3 l 7 24 q 66 26 75 32 q 84 39 91 61 q 102 96 144 351 q 186 606 186 633 q 186 652 175 657 q 167 660 100 665 l 104 691 q 177 688 227 688 q 281 688 359 691 l 359 665 q 298 663 289 659 q 280 655 275 645 q 269 635 254 554 l 219 340 l 181 106 q 175 66 175 56 q 175 39 184 34 q 195 28 261 24 l 257 -3 q 183 0 138 0 q 98 0 3 -3 z"},"H":{"x_min":0,"x_max":778,"ha":778,"o":"m 3 -3 l 7 24 q 62 26 70 30 q 79 35 85 45 q 91 55 109 152 q 126 248 156 432 q 185 617 185 630 q 185 651 174 656 q 167 658 100 664 l 104 691 q 177 688 226 688 q 280 688 358 691 l 358 664 q 292 662 283 655 q 273 648 265 612 q 256 575 225 384 q 310 380 384 380 q 468 380 595 384 q 614 490 627 584 q 633 625 633 636 q 633 652 623 657 q 614 662 551 664 l 551 691 q 630 688 691 688 q 745 688 799 691 l 799 664 l 768 662 q 742 661 735 657 q 728 653 722 644 q 717 634 709 592 l 673 391 l 641 206 q 620 83 620 56 q 620 39 632 33 q 644 27 713 24 l 709 -3 q 625 0 576 0 q 526 0 439 -3 l 444 24 q 512 25 521 33 q 531 41 541 82 q 560 171 588 340 q 506 342 422 342 q 325 342 218 340 l 177 88 q 174 68 174 59 q 174 40 184 34 q 194 28 260 24 l 256 -3 q 182 0 137 0 q 98 0 3 -3 z"},"4":{"x_min":0,"x_max":500,"ha":500,"o":"m 107 -3 l 111 25 l 160 28 q 218 31 230 42 q 241 54 257 129 l 269 189 l 120 189 q 56 189 12 187 l 12 217 q 69 307 153 421 q 258 564 348 676 q 381 684 415 694 l 427 688 q 403 585 395 537 l 346 247 l 391 247 q 444 247 475 250 l 480 247 q 470 219 461 187 q 406 189 373 189 l 342 189 l 329 127 q 322 96 322 66 q 322 45 334 39 q 346 32 443 25 l 438 -3 q 345 0 270 0 q 190 0 107 -3 z m 339 611 q 292 553 229 465 q 133 333 81 254 l 85 248 q 124 247 198 247 l 278 247 z"},"~":{"x_min":0,"x_max":606,"ha":606,"o":"m 542 418 l 563 418 q 561 345 533 311 q 499 269 444 269 q 421 269 396 276 q 370 284 262 328 q 187 359 155 359 q 83 359 64 270 l 42 270 q 43 323 57 353 q 71 383 99 401 q 126 419 157 419 q 179 419 205 412 q 256 396 342 359 q 388 340 417 332 q 433 328 451 328 q 488 328 512 351 q 537 375 542 418 z"},"D":{"x_min":0,"x_max":778,"ha":778,"o":"m 32 -2 l 32 22 q 56 26 66 33 q 75 40 82 56 q 88 71 107 181 l 139 372 l 145 415 q 173 598 173 627 q 173 649 156 657 q 146 660 85 665 l 85 692 q 159 688 220 688 q 254 688 311 690 q 391 693 422 693 q 534 693 595 663 q 656 634 689 576 q 722 519 722 428 q 722 249 592 117 q 472 -5 288 -5 q 263 -5 214 -3 q 146 0 106 0 q 73 0 32 -2 z m 167 52 q 250 37 312 37 q 414 37 477 77 q 541 117 587 211 q 632 305 632 416 q 632 495 604 546 q 577 597 523 624 q 470 651 388 651 q 327 651 263 646 q 250 585 222 415 l 215 372 q 179 153 167 52 z"},"^":{"x_min":0,"x_max":606,"ha":606,"o":"m 109 287 l 51 287 l 275 688 l 331 688 l 554 287 l 495 287 l 303 622 z"},"0":{"x_min":0,"x_max":500,"ha":500,"o":"m 43 235 q 43 371 89 493 q 128 599 187 645 q 245 691 312 691 q 391 691 438 633 q 484 575 484 452 q 484 314 438 189 q 399 84 340 35 q 280 -13 215 -13 q 138 -13 91 47 q 43 107 43 235 z m 118 186 q 118 95 146 56 q 174 17 219 17 q 256 17 284 46 q 333 95 369 221 q 405 347 405 485 q 405 585 379 623 q 353 661 307 661 q 260 661 217 608 q 174 554 146 425 q 118 296 118 186 z"},"F":{"x_min":0,"x_max":556,"ha":556,"o":"m 22 -3 l 25 24 l 57 27 q 80 29 87 32 q 93 35 98 41 q 102 47 107 68 q 112 90 140 257 l 177 479 q 197 606 197 625 q 197 645 185 651 q 173 658 109 664 l 113 691 q 207 688 255 688 l 483 691 l 563 690 q 553 642 547 540 l 521 540 q 518 594 512 636 q 460 651 380 651 q 351 651 284 648 q 254 496 232 343 q 296 341 355 341 q 429 341 487 351 l 493 343 q 479 315 473 294 q 427 300 369 300 q 334 300 225 298 q 190 94 190 62 q 190 42 201 37 q 212 31 288 24 l 288 -3 q 209 0 153 0 q 94 0 22 -3 z"},"`":{"x_min":0,"x_max":333,"ha":333,"o":"m 302 552 l 153 646 q 127 663 120 671 q 114 679 114 689 q 114 701 122 709 q 130 718 142 718 q 152 718 162 713 q 171 707 201 680 l 336 552 z"},"k":{"x_min":0,"x_max":444,"ha":444,"o":"m 55 665 l 60 686 q 151 696 222 726 l 233 715 l 164 399 l 127 221 q 256 377 336 440 q 378 473 413 473 q 423 473 440 470 q 431 438 424 400 q 403 407 393 407 q 368 407 331 385 q 293 363 231 298 q 303 94 319 66 q 330 48 344 48 q 352 48 360 51 q 368 55 407 78 l 417 57 q 316 -13 298 -13 q 281 -13 269 8 q 241 56 179 246 q 137 200 127 183 q 117 166 108 132 q 100 99 86 7 q 46 -1 20 -11 l 10 -3 q 55 158 126 559 q 140 635 140 642 q 140 657 131 661 q 122 666 55 665 z"},"u":{"x_min":0,"x_max":556,"ha":556,"o":"m 43 365 l 33 383 q 159 473 198 473 q 208 473 215 467 q 221 461 221 450 q 221 434 188 305 q 142 123 142 78 q 142 65 146 60 q 151 55 159 55 q 179 55 223 93 q 309 165 351 245 q 393 325 413 457 q 458 466 481 473 l 488 466 q 445 323 418 192 q 402 108 402 79 q 402 65 406 59 q 410 54 417 54 q 432 54 471 86 l 497 107 l 508 89 q 387 -13 350 -13 q 339 -13 332 -4 q 325 6 325 25 q 325 46 333 84 l 365 224 q 291 109 201 36 q 141 -12 108 -12 q 90 -12 79 0 q 68 13 68 38 q 68 69 88 153 q 137 354 137 386 q 137 396 133 401 q 129 406 122 406 q 107 406 43 365 z"},"]":{"x_min":0,"x_max":333,"ha":333,"o":"m 92 686 l 97 716 q 179 712 220 712 q 258 712 294 716 l 301 709 q 286 648 264 516 q 221 261 188 28 q 173 -83 168 -159 l 161 -165 q 103 -161 69 -161 q 38 -161 -25 -164 l -21 -132 q 52 -128 66 -124 q 80 -120 89 -108 q 97 -95 102 -59 q 107 -20 125 90 l 201 588 q 206 630 206 648 q 206 668 194 674 q 182 680 92 686 z"},"U":{"x_min":0,"x_max":778,"ha":778,"o":"m 96 664 l 96 691 q 155 688 187 688 q 224 688 277 691 q 246 550 205 298 q 187 184 187 153 q 187 104 223 75 q 259 45 326 45 q 389 45 452 79 q 515 112 567 179 q 597 346 630 572 q 637 618 637 633 q 637 649 628 655 q 618 660 550 664 l 550 691 q 604 688 689 688 q 730 688 804 691 l 804 664 q 749 660 741 657 q 734 653 729 646 q 723 639 716 608 l 687 437 l 649 208 q 627 77 627 53 q 627 39 635 34 q 643 29 681 27 l 718 24 l 714 -3 q 664 0 622 0 q 579 0 537 -3 l 537 0 q 551 66 561 124 q 480 48 415 18 q 350 -13 290 -13 q 207 -13 153 34 q 108 72 108 140 q 108 163 113 198 q 117 232 143 383 q 181 596 181 626 q 181 645 171 651 q 161 657 96 664 z"},"o":{"x_min":0,"x_max":444,"ha":444,"o":"m 23 144 q 23 300 104 387 q 185 473 281 473 q 345 473 381 435 q 417 396 417 325 q 417 234 377 152 q 338 69 277 28 q 216 -13 155 -13 q 93 -13 58 25 q 23 64 23 144 z m 100 151 q 100 83 124 53 q 148 24 192 24 q 257 24 293 97 q 339 189 339 309 q 339 379 315 409 q 290 439 244 439 q 206 439 177 414 q 149 389 125 314 q 100 239 100 151 z"},"N":{"x_min":0,"x_max":778,"ha":778,"o":"m 11 -3 l 11 25 q 70 27 80 36 q 89 45 113 168 q 145 327 192 613 q 172 643 156 651 q 139 659 80 663 l 80 691 q 166 688 186 688 q 214 688 246 691 q 269 647 387 444 l 590 102 q 604 182 661 528 q 675 617 675 633 q 675 649 665 655 q 654 660 593 663 l 593 691 q 667 688 704 688 q 748 688 811 691 l 811 663 q 763 661 754 656 q 745 652 738 642 q 731 632 720 578 l 666 280 q 635 110 617 -14 l 567 -14 q 519 76 461 174 l 229 563 q 217 502 159 170 q 145 89 145 64 q 145 41 162 33 q 173 28 232 25 l 232 -3 q 162 0 127 0 q 105 0 11 -3 z"},"+":{"x_min":0,"x_max":606,"ha":606,"o":"m 57 310 l 57 378 l 269 378 l 269 590 l 337 590 l 337 378 l 549 378 l 549 310 l 337 310 l 337 98 l 269 98 l 269 310 z"},"G":{"x_min":0,"x_max":722,"ha":722,"o":"m 448 246 l 452 274 q 540 271 597 271 q 654 271 707 274 l 707 246 q 667 242 658 234 q 649 226 641 190 q 625 121 625 78 q 625 64 629 43 l 629 35 q 586 32 556 23 q 493 5 445 -6 q 406 -13 360 -13 q 207 -13 127 63 q 48 139 48 277 q 48 444 152 563 q 272 701 470 701 q 528 701 583 692 q 637 683 688 665 q 675 628 669 601 q 663 573 657 517 l 626 517 l 628 552 l 626 600 q 583 625 537 637 q 491 648 434 648 q 338 648 279 611 q 219 574 178 488 q 138 402 138 295 q 138 168 203 102 q 269 35 391 35 q 473 35 547 61 q 554 91 570 183 q 573 197 573 206 q 573 225 560 231 q 548 237 448 246 z"},"q":{"x_min":0,"x_max":463,"ha":463,"o":"m 426 473 l 441 465 q 338 6 302 -261 q 258 -268 217 -280 l 208 -267 q 220 -256 224 -249 q 229 -238 255 -110 q 290 61 313 197 q 233 84 167 36 q 102 -13 73 -13 q 55 -13 44 6 q 29 32 29 81 q 29 135 47 211 q 65 288 88 332 q 110 375 136 398 q 181 438 232 460 q 259 473 290 473 q 312 473 338 468 q 364 462 394 450 q 410 460 426 473 z m 357 399 q 334 412 311 418 q 287 425 264 425 q 224 425 195 410 q 182 403 170 380 q 140 324 121 247 q 102 170 102 112 q 102 75 108 63 q 113 54 124 54 q 152 54 216 109 q 279 165 313 235 q 337 285 357 399 z"},"d":{"x_min":0,"x_max":500,"ha":500,"o":"m 323 662 l 326 682 q 429 695 486 726 l 499 715 q 458 542 395 233 q 366 95 366 75 q 366 63 370 59 q 373 54 379 54 q 401 54 462 101 l 474 83 q 355 -13 315 -13 q 304 -13 297 -4 q 290 4 290 21 q 290 38 295 64 q 300 91 326 199 q 265 100 190 43 q 114 -13 81 -13 q 62 -13 49 7 q 34 33 34 85 q 34 191 79 301 q 111 381 176 427 q 241 473 297 473 q 329 473 375 460 l 395 575 q 403 625 403 641 q 403 653 395 657 q 383 662 323 662 z m 365 405 q 312 431 268 431 q 228 431 204 417 q 189 409 176 384 q 146 328 125 245 q 104 163 104 110 q 104 74 110 64 q 116 53 128 53 q 158 53 204 90 q 268 140 310 221 q 353 303 365 405 z"},"1":{"x_min":0,"x_max":500,"ha":500,"o":"m 64 -3 l 67 25 l 112 29 q 154 32 169 41 q 180 47 189 63 q 198 79 208 141 l 252 403 q 272 523 286 625 q 232 604 97 545 l 91 545 q 97 580 100 606 q 168 621 243 646 q 318 671 366 695 l 381 684 q 341 486 325 387 l 284 120 q 282 101 282 83 q 282 47 300 40 q 318 32 410 25 l 405 -3 q 313 0 246 0 q 175 0 64 -3 z"},"5":{"x_min":0,"x_max":500,"ha":500,"o":"m 29 172 l 54 168 q 51 145 51 133 q 51 83 82 56 q 119 24 177 24 q 222 24 260 49 q 297 74 322 129 q 346 183 346 247 q 346 309 313 344 q 279 380 225 380 q 191 380 161 366 q 131 352 100 318 l 79 329 q 115 489 141 670 l 148 678 q 238 670 320 670 q 382 670 470 674 l 477 665 q 450 623 441 607 q 364 603 311 603 q 252 603 172 607 l 123 375 q 160 402 189 412 q 219 422 256 422 q 339 422 385 378 q 431 334 431 258 q 431 184 396 124 q 362 63 295 25 q 229 -13 154 -13 q 111 -13 76 -2 q 41 8 1 35 q 21 113 29 172 z"}}}
